<?xml version="1.0" standalone="no"?><svg xmlns="http://www.w3.org/2000/svg" viewBox="0 0 1440 320"><path fill="#574b90" fill-opacity="1" d="M0,128L6.2,154.7C12.3,181,25,235,37,240C49.2,245,62,203,74,181.3C86.2,160,98,160,111,165.3C123.1,171,135,181,148,197.3C160,213,172,235,185,218.7C196.9,203,209,149,222,154.7C233.8,160,246,224,258,218.7C270.8,213,283,139,295,112C307.7,85,320,107,332,138.7C344.6,171,357,213,369,234.7C381.5,256,394,256,406,234.7C418.5,213,431,171,443,138.7C455.4,107,468,85,480,74.7C492.3,64,505,64,517,58.7C529.2,53,542,43,554,58.7C566.2,75,578,117,591,112C603.1,107,615,53,628,74.7C640,96,652,192,665,208C676.9,224,689,160,702,154.7C713.8,149,726,203,738,186.7C750.8,171,763,85,775,74.7C787.7,64,800,128,812,133.3C824.6,139,837,85,849,101.3C861.5,117,874,203,886,245.3C898.5,288,911,288,923,245.3C935.4,203,948,117,960,122.7C972.3,128,985,224,997,245.3C1009.2,267,1022,213,1034,192C1046.2,171,1058,181,1071,197.3C1083.1,213,1095,235,1108,224C1120,213,1132,171,1145,170.7C1156.9,171,1169,213,1182,240C1193.8,267,1206,277,1218,272C1230.8,267,1243,245,1255,218.7C1267.7,192,1280,160,1292,144C1304.6,128,1317,128,1329,138.7C1341.5,149,1354,171,1366,181.3C1378.5,192,1391,192,1403,202.7C1415.4,213,1428,235,1434,245.3L1440,256L1440,0L1433.8,0C1427.7,0,1415,0,1403,0C1390.8,0,1378,0,1366,0C1353.8,0,1342,0,1329,0C1316.9,0,1305,0,1292,0C1280,0,1268,0,1255,0C1243.1,0,1231,0,1218,0C1206.2,0,1194,0,1182,0C1169.2,0,1157,0,1145,0C1132.3,0,1120,0,1108,0C1095.4,0,1083,0,1071,0C1058.5,0,1046,0,1034,0C1021.5,0,1009,0,997,0C984.6,0,972,0,960,0C947.7,0,935,0,923,0C910.8,0,898,0,886,0C873.8,0,862,0,849,0C836.9,0,825,0,812,0C800,0,788,0,775,0C763.1,0,751,0,738,0C726.2,0,714,0,702,0C689.2,0,677,0,665,0C652.3,0,640,0,628,0C615.4,0,603,0,591,0C578.5,0,566,0,554,0C541.5,0,529,0,517,0C504.6,0,492,0,480,0C467.7,0,455,0,443,0C430.8,0,418,0,406,0C393.8,0,382,0,369,0C356.9,0,345,0,332,0C320,0,308,0,295,0C283.1,0,271,0,258,0C246.2,0,234,0,222,0C209.2,0,197,0,185,0C172.3,0,160,0,148,0C135.4,0,123,0,111,0C98.5,0,86,0,74,0C61.5,0,49,0,37,0C24.6,0,12,0,6,0L0,0Z"></path></svg>